<svg xmlns="http://www.w3.org/2000/svg" width="17.423" height="17.423" viewBox="0 0 17.423 17.423"><defs><style>.a{fill:#26093a;}</style></defs><path class="a" d="M11.12,2.25a8.521,8.521,0,0,0-8.553,8.487A8.4,8.4,0,0,0,3.794,15.12L2.25,19.673l4.736-1.5a8.568,8.568,0,0,0,12.688-7.432A8.52,8.52,0,0,0,11.12,2.25Zm4.253,11.711a2.209,2.209,0,0,1-1.513.975c-.4.021-.413.311-2.6-.639a8.924,8.924,0,0,1-3.606-3.41,4.2,4.2,0,0,1-.807-2.273A2.424,2.424,0,0,1,7.68,6.835a.838.838,0,0,1,.592-.249c.172,0,.284-.005.411,0S9,6.559,9.168,7s.562,1.523.612,1.633a.4.4,0,0,1,0,.38,1.485,1.485,0,0,1-.232.353c-.114.122-.24.274-.342.367s-.232.217-.113.438a6.545,6.545,0,0,0,1.158,1.545,5.968,5.968,0,0,0,1.715,1.14c.214.117.342.1.475-.036s.569-.612.723-.823.3-.17.5-.091,1.251.644,1.465.76.358.176.409.268A1.8,1.8,0,0,1,15.373,13.961Z" transform="translate(-2.25 -2.25)"/></svg>